<?xml version="1.0" encoding="UTF-8"?>
<svg id="Capa_1" xmlns="http://www.w3.org/2000/svg" version="1.1" xmlns:xlink="http://www.w3.org/1999/xlink" viewBox="0 0 383 70">
  <!-- Generator: Adobe Illustrator 30.3.0, SVG Export Plug-In . SVG Version: 2.1.3 Build 182)  -->
  <defs>
    <style>
      .st0 {
        fill: #fff;
      }

      .st1 {
        fill: url(#Degradado_sin_nombre_33);
      }

      .st2 {
        fill: url(#Degradado_sin_nombre_31);
      }
    </style>
    <linearGradient id="Degradado_sin_nombre_31" data-name="Degradado sin nombre 31" x1="39.68" y1="60.75" x2="47.18" y2="55.83" gradientUnits="userSpaceOnUse">
      <stop offset=".1" stop-color="#1c1c1b" stop-opacity="0"/>
      <stop offset=".44" stop-color="#1c1c1b" stop-opacity=".14"/>
      <stop offset=".78" stop-color="#1c1c1b" stop-opacity=".58"/>
      <stop offset="1" stop-color="#1c1c1b"/>
    </linearGradient>
    <linearGradient id="Degradado_sin_nombre_33" data-name="Degradado sin nombre 33" x1="40.33" y1="40.08" x2="18.33" y2="16.8" gradientUnits="userSpaceOnUse">
      <stop offset=".09" stop-color="#1c1c1b"/>
      <stop offset=".14" stop-color="#393938" stop-opacity=".88"/>
      <stop offset=".6" stop-color="#e4e4e4" stop-opacity=".16"/>
      <stop offset=".6" stop-color="#e4e4e4" stop-opacity=".16"/>
      <stop offset=".7" stop-color="#f3f3f3" stop-opacity=".07"/>
      <stop offset=".8" stop-color="#fcfcfc" stop-opacity=".02"/>
      <stop offset=".9" stop-color="#fff" stop-opacity="0"/>
    </linearGradient>
  </defs>
  <g>
    <g>
      <path class="st0" d="M96.94,21.4h4.55l12.28,28.12h-5.18l-2.83-6.74h-13.2l-2.87,6.74h-5.03l12.28-28.12ZM103.96,38.43l-4.83-11.17-4.79,11.17h9.61Z"/>
      <path class="st0" d="M132.36,38.51l-11.09-16.91h5.78l7.82,12.36,7.9-12.36h5.62l-11.09,16.79v11.13h-4.94v-11.01Z"/>
      <path class="st0" d="M162.97,21.6h4.91v27.92h-4.91v-27.92Z"/>
      <path class="st0" d="M184.62,35.64v-.08c0-7.5,5.39-14.44,13.8-14.44,4.39,0,7.1,1.32,9.89,3.63l-.88,1.04c-2.43-2.03-4.99-3.43-9.09-3.43-7.42,0-12.32,6.3-12.32,13.16v.08c0,7.22,4.67,13.2,12.52,13.2,3.91,0,7.3-1.71,9.53-3.59v-8.58h-9.93v-1.32h11.25v10.41c-2.59,2.35-6.38,4.27-10.89,4.27-8.78,0-13.88-6.54-13.88-14.36Z"/>
      <path class="st0" d="M226.99,21.6h11.53c3.55,0,6.26,1,7.98,2.67,1.28,1.32,2.03,3.11,2.03,5.19v.08c0,4.71-3.63,7.46-8.77,7.9l9.29,12.08h-1.71l-9.09-11.93h-9.89v11.93h-1.36v-27.92ZM238.16,36.35c5.74,0,9.01-2.79,9.01-6.74v-.08c0-4.19-3.23-6.7-8.73-6.7h-10.09v13.52h9.81Z"/>
      <path class="st0" d="M264.25,35.6v-.08c0-7.62,5.5-14.4,13.96-14.4s13.92,6.78,13.92,14.4v.08c0,7.62-5.5,14.4-13.96,14.4s-13.92-6.78-13.92-14.4ZM290.74,35.64v-.08c0-7.06-5.15-13.2-12.56-13.2s-12.52,6.06-12.52,13.12v.08c0,7.06,5.15,13.2,12.6,13.2s12.48-6.06,12.48-13.12Z"/>
      <path class="st0" d="M308.73,37.47v-15.87h1.36v15.79c0,7.42,3.99,11.33,10.05,11.33s9.93-3.75,9.93-11.25v-15.87h1.36v15.75c0,8.34-4.59,12.6-11.33,12.6s-11.37-4.23-11.37-12.48Z"/>
      <path class="st0" d="M349.23,21.6h9.97c6.54,0,10.57,3.15,10.57,8.46v.08c0,5.58-4.51,8.66-10.89,8.66h-8.3v10.73h-1.36v-27.92ZM358.92,37.51c5.78,0,9.49-2.71,9.49-7.34v-.08c0-4.59-3.59-7.26-9.33-7.26h-8.5v14.68h8.34Z"/>
    </g>
    <path class="st0" d="M374.57,21.66h-1.61v-.54h3.78v.54h-1.61v4.37h-.56v-4.37ZM377.86,21.12h.59l1.91,2.92,1.91-2.92h.57v4.91h-.56v-3.92l-1.9,2.84h-.08l-1.9-2.84v3.92h-.56v-4.91Z"/>
  </g>
  <path class="st0" d="M59.57,60.55c-1.76-2.59-3.5-5.19-5.24-7.8,0,0,0,0,0,0-1.6-2.4-3.2-4.8-4.78-7.22-4.62-7.09-9.25-14.1-13.87-21.04l-18.17,27.34-5.85,8.79c2.03,1.89,4.28,3.51,6.73,4.85,1.04-1.54,2.18-3.17,3.42-4.91.3-.42,1.1-1.52,1.91-2.64h0c.05-.06.1-.13.14-.2.68-.93,1.34-1.84,1.71-2.35.37-.5.73-1.01,1.11-1.52,1.69-2.31,3.31-4.58,4.85-6.82,1.54-2.23,2.93-4.2,4.16-5.9,1.23,1.7,2.62,3.66,4.16,5.9,1.54,2.24,3.12,4.51,4.74,6.82.97,1.38,1.92,2.73,2.86,4.06,0,0,0,0,0,0,0,0,.01.01.02.02-.59.3-1.19.6-1.82.86-3.16,1.33-6.52,2-10.07,2s-6.88-.67-9.98-2c-.63-.27-1.23-.57-1.83-.88-.64.89-1.28,1.77-1.9,2.64-1.24,1.74-2.38,3.37-3.42,4.91,1.17.64,2.38,1.23,3.65,1.74,4.22,1.72,8.76,2.58,13.64,2.58s9.59-.92,13.81-2.75c1.12-.48,2.19-1.02,3.24-1.59,0,0-.01-.02-.02-.02,2.48-1.37,4.74-2.99,6.8-4.86Z"/>
  <path class="st0" d="M67.89,21.61c-1.78-4.27-4.22-7.99-7.32-11.15-3.11-3.16-6.8-5.66-11.07-7.49S40.66.23,35.78.23s-9.46.92-13.73,2.75c-4.27,1.83-7.99,4.33-11.15,7.49-3.16,3.16-5.66,6.88-7.49,11.15-1.83,4.27-2.74,8.79-2.74,13.56s.91,9.6,2.74,13.81c1.83,4.22,4.33,7.88,7.49,10.98,3.16,3.11,6.85,5.52,11.06,7.24,4.22,1.72,8.76,2.58,13.64,2.58s9.59-.92,13.81-2.75c4.22-1.83,7.9-4.3,11.07-7.4,3.16-3.1,5.63-6.76,7.4-10.98,1.77-4.21,2.66-8.71,2.66-13.48s-.89-9.29-2.66-13.56ZM59.24,45.15c-1.33,3.11-3.16,5.82-5.49,8.15-2.33,2.33-5.07,4.16-8.24,5.49-3.16,1.33-6.52,2-10.06,2s-6.88-.67-9.98-2c-3.11-1.33-5.82-3.16-8.15-5.49-2.33-2.33-4.16-5.05-5.49-8.15-1.33-3.1-2-6.43-2-9.98s.66-6.9,2-10.07c1.33-3.16,3.16-5.91,5.49-8.24,2.33-2.33,5.04-4.16,8.15-5.49,3.1-1.33,6.43-2,9.98-2s6.9.67,10.06,2c3.16,1.33,5.91,3.16,8.24,5.49,2.33,2.33,4.16,5.07,5.49,8.24,1.33,3.16,2,6.52,2,10.07s-.66,6.88-2,9.98Z"/>
  <path class="st2" d="M47.5,57.91c-.61.31-1.22.62-1.86.89-3.16,1.33-6.52,2-10.07,2s-6.88-.67-9.98-2c-.63-.27-1.23-.57-1.83-.88-.64.89-1.28,1.77-1.9,2.64-1.24,1.74-2.38,3.37-3.42,4.91,1.17.64,2.38,1.23,3.64,1.74,4.22,1.72,8.76,2.58,13.64,2.58s9.59-.92,13.81-2.75c1.12-.48,2.19-1.02,3.24-1.59-1.04-1.53-2.17-3.16-3.41-4.89-.62-.86-1.25-1.75-1.88-2.64Z"/>
  <path class="st1" d="M67.89,21.61c-1.78-4.27-4.22-7.99-7.32-11.15-3.11-3.16-6.8-5.66-11.07-7.49C45.24,1.14,40.66.23,35.78.23s-9.46.92-13.73,2.75c-4.27,1.83-7.99,4.33-11.15,7.49-3.16,3.16-5.66,6.88-7.49,11.15-1.83,4.27-2.74,8.79-2.74,13.56s.91,9.6,2.74,13.81c1.83,4.22,4.32,7.88,7.49,10.98.23.22.46.43.69.65l5.22-7.85c-2.09-2.21-3.76-4.73-4.99-7.61-1.33-3.1-2-6.43-2-9.98s.67-6.9,2-10.07c1.33-3.16,3.16-5.91,5.49-8.24,2.33-2.33,5.04-4.16,8.15-5.49,3.1-1.33,6.43-2,9.98-2s6.9.67,10.07,2c3.16,1.33,5.91,3.16,8.24,5.49,2.33,2.33,4.16,5.07,5.49,8.24,1.33,3.16,2,6.52,2,10.07s-.67,6.88-2,9.98c-1.23,2.87-2.9,5.39-4.98,7.59,1.74,2.61,3.49,5.21,5.24,7.81.33-.3.66-.61.99-.92,3.16-3.1,5.63-6.76,7.4-10.98,1.77-4.21,2.66-8.71,2.66-13.48s-.89-9.29-2.66-13.56Z"/>
  <path class="st0" d="M60.64,10.46c-3.11-3.16-6.8-5.66-11.07-7.49C45.3,1.14,40.73.23,35.85.23c-.06,0-.11,0-.17,0v9.15c3.49.02,6.79.68,9.9,1.99,3.16,1.33,5.91,3.16,8.24,5.49,2.33,2.33,4.16,5.07,5.49,8.24,1.33,3.16,2,6.52,2,10.07s-.67,6.88-2,9.98c-1.23,2.87-2.9,5.39-4.98,7.59,1.74,2.61,3.49,5.21,5.24,7.81.33-.3.66-.61.99-.92,3.16-3.1,5.63-6.76,7.4-10.98,1.77-4.21,2.66-8.71,2.66-13.48s-.89-9.29-2.66-13.56c-1.77-4.27-4.22-7.99-7.32-11.15Z"/>
</svg>