<?xml version="1.0" encoding="UTF-8"?>
<svg id="Grupo_14" xmlns="http://www.w3.org/2000/svg" version="1.1" xmlns:xlink="http://www.w3.org/1999/xlink" viewBox="0 0 527.39 105.48">
  <!-- Generator: Adobe Illustrator 30.3.0, SVG Export Plug-In . SVG Version: 2.1.3 Build 182)  -->
  <defs>
    <style>
      .st0 {
        fill: #fff;
      }

      .st1 {
        fill: none;
      }

      .st2 {
        clip-path: url(#clippath-1);
      }

      .st3 {
        isolation: isolate;
      }

      .st4 {
        clip-path: url(#clippath);
      }

      .st5 {
        opacity: .8;
      }
    </style>
    <clipPath id="clippath">
      <rect class="st1" width="527.39" height="105.48"/>
    </clipPath>
    <clipPath id="clippath-1">
      <rect class="st1" x="154.08" width="89.75" height="54.19"/>
    </clipPath>
  </defs>
  <rect class="st1" width="527.39" height="105.48"/>
  <g id="Grupo_12">
    <g class="st4">
      <g id="Grupo_11">
        <g id="Grupo_10" class="st5">
          <g id="Grupo_9">
            <g class="st2">
              <g id="Grupo_8">
                <path id="Trazado_38" class="st0" d="M181.72,54.19l-11.27-20.46h-3.16v20.46h-13.2V0h22.16c3.76-.11,7.5.66,10.92,2.24,2.82,1.32,5.17,3.46,6.76,6.14,1.5,2.64,2.28,5.64,2.24,8.69.04,3.46-1.02,6.84-3.05,9.65-2.23,2.97-5.4,5.09-8.99,6.02l12.51,21.46h-14.9ZM167.28,24.4h8.18c1.98.15,3.94-.49,5.44-1.78,1.27-1.35,1.93-3.17,1.81-5.02.1-1.8-.56-3.56-1.81-4.86-1.51-1.29-3.47-1.93-5.44-1.78h-8.18v13.43Z"/>
                <path id="Trazado_39" class="st0" d="M223.83,10.58v14.46h17.68v4.95h-17.68v13.64h19.99v10.58h-33.2V0h33.2v10.58h-19.99Z"/>
              </g>
            </g>
          </g>
        </g>
        <path id="Trazado_40" class="st0" d="M270.34,15.55c0-2.37.54-4.08,1.62-5.11,1.08-1.03,2.94-1.55,5.58-1.55V3.87c-4.62,0-7.97.93-10.06,2.8-2.09,1.87-3.13,4.82-3.13,8.87v9.48h-4.68v4.95h4.68v24.3h6v-24.3h7.59v-4.94h-7.59v-9.48Z"/>
        <path id="Trazado_41" class="st0" d="M316.85,19.81c-5.83-3.03-12.78-3.03-18.61,0-2.76,1.51-5.04,3.78-6.57,6.53-1.65,3-2.48,6.38-2.41,9.8-.07,3.43.73,6.83,2.34,9.86,1.49,2.76,3.73,5.04,6.47,6.57,2.81,1.56,5.98,2.35,9.2,2.31,3.27.04,6.49-.75,9.37-2.31,2.8-1.52,5.12-3.8,6.7-6.57,1.69-3.01,2.55-6.41,2.47-9.86.08-3.43-.75-6.82-2.41-9.83-1.53-2.74-3.81-4.99-6.57-6.5M317.94,43.53c-1.06,1.92-2.65,3.5-4.58,4.55-1.87,1-3.95,1.53-6.07,1.52-2.07.02-4.12-.49-5.94-1.48-1.86-1.04-3.36-2.62-4.32-4.52-1.14-2.31-1.7-4.88-1.62-7.46-.08-2.56.49-5.1,1.65-7.39.98-1.91,2.51-3.48,4.39-4.52,3.77-1.98,8.27-1.98,12.04,0,1.9,1.04,3.46,2.61,4.49,4.52,1.2,2.27,1.8,4.82,1.72,7.39.08,2.57-.52,5.12-1.75,7.39"/>
        <path id="Trazado_42" class="st0" d="M346.35,24v-5.87h-6v36.16h6v-19.66c0-7.3,3.37-10.95,10.1-10.95h1.58v-6.2c-2.5-.08-4.97.51-7.16,1.72-1.95,1.13-3.52,2.8-4.53,4.82"/>
        <path id="Trazado_43" class="st0" d="M399.92,24.72c-1.24-2.16-3.06-3.95-5.25-5.15-2.51-1.4-5.34-2.11-8.21-2.05-3.07-.04-6.09.76-8.74,2.31-2.62,1.55-4.76,3.8-6.17,6.5-1.55,3.01-2.32,6.35-2.24,9.73-.06,3.39.71,6.74,2.24,9.77,2.83,5.62,8.62,9.13,14.91,9.04,2.87.07,5.7-.66,8.18-2.11,2.19-1.27,4.01-3.09,5.28-5.28v7.59c0,3.74-1.04,6.64-3.13,8.71-2.16,2.09-5.08,3.21-8.08,3.1-2.63.08-5.22-.62-7.45-2.01-1.97-1.21-3.42-3.1-4.09-5.31h-5.94c.48,3.72,2.52,7.05,5.61,9.17,3.5,2.34,7.66,3.52,11.87,3.37,3.18.07,6.33-.68,9.14-2.18,2.55-1.39,4.65-3.48,6.04-6.04,1.44-2.71,2.17-5.74,2.11-8.81V18.13h-6.07v6.6ZM398.27,43.3c-1.01,1.95-2.56,3.58-4.45,4.69-1.88,1.08-4.01,1.64-6.17,1.62-2.15.02-4.27-.53-6.14-1.62-1.88-1.12-3.42-2.74-4.42-4.69-1.14-2.23-1.71-4.72-1.65-7.22-.06-2.48.51-4.93,1.65-7.13,1.01-1.93,2.54-3.53,4.42-4.62,3.83-2.12,8.48-2.11,12.3.03,1.89,1.1,3.44,2.71,4.45,4.65,1.14,2.2,1.71,4.65,1.65,7.13.06,2.49-.51,4.95-1.65,7.16"/>
        <path id="Trazado_44" class="st0" d="M447.49,19.77c-2.79-1.53-5.93-2.31-9.11-2.24-3.26-.06-6.48.72-9.34,2.28-2.69,1.5-4.88,3.76-6.3,6.5-1.55,3.04-2.32,6.42-2.24,9.83-.07,3.43.72,6.82,2.31,9.86,1.45,2.75,3.66,5.03,6.37,6.56,2.81,1.57,5.98,2.36,9.2,2.31,3.87.14,7.67-1.01,10.82-3.27,2.84-2.09,4.89-5.08,5.81-8.48h-6.47c-.66,1.97-1.95,3.67-3.66,4.85-1.93,1.26-4.2,1.9-6.5,1.81-6.27.21-11.53-4.7-11.74-10.98,0-.12,0-.25,0-.37h28.9c.13-1.21.2-2.42.2-3.63.05-3.09-.69-6.15-2.14-8.87-1.41-2.59-3.52-4.73-6.1-6.17M426.71,33.56c.13-3.06,1.45-5.94,3.66-8.05,2.12-1.93,4.89-2.97,7.75-2.9,2-.03,3.98.41,5.78,1.29,1.71.83,3.14,2.14,4.12,3.76,1.05,1.79,1.57,3.83,1.52,5.9h-22.83Z"/>
        <path id="Trazado_45" class="st0" d="M473.43,65.54l18.13-27.1-18.13-27.1h-10.13l18.13,27.1-18.13,27.1h10.13Z"/>
        <path id="Trazado_46" class="st0" d="M492.55,65.54l18.13-27.1-18.13-27.1h-10.13l18.13,27.1-18.13,27.1h10.13Z"/>
        <path id="Trazado_47" class="st0" d="M509.26,65.54l18.13-27.1-18.13-27.1h-10.13l18.13,27.1-18.13,27.1h10.13Z"/>
        <g id="Migra" class="st3">
          <g class="st3">
            <path class="st0" d="M13.94,82.57v12.61h-1.28v-10.07l-4.5,10.07h-.93l-4.5-10.03v10.03h-1.28v-12.61h1.35l4.88,10.93,4.88-10.93h1.37Z"/>
            <path class="st0" d="M21.2,83.04c-.18-.18-.27-.41-.27-.68s.09-.49.27-.67c.18-.18.4-.26.66-.26s.48.09.66.26c.18.18.27.4.27.67s-.09.49-.27.68-.4.27-.66.27-.48-.09-.66-.27ZM22.5,85.2v9.98h-1.28v-9.98h1.28Z"/>
            <path class="st0" d="M36.4,85.71c.69.44,1.19.99,1.5,1.66v-2.17h1.28v10.23c0,.91-.2,1.72-.59,2.43-.4.71-.95,1.25-1.65,1.64-.71.38-1.51.58-2.41.58-1.28,0-2.34-.3-3.19-.91-.85-.61-1.37-1.44-1.58-2.49h1.26c.22.7.64,1.25,1.25,1.66.61.41,1.37.62,2.26.62.65,0,1.22-.14,1.74-.41.51-.27.91-.68,1.21-1.21s.44-1.17.44-1.9v-2.47c-.32.68-.82,1.25-1.51,1.69-.69.44-1.5.67-2.44.67s-1.73-.21-2.46-.64c-.73-.43-1.29-1.03-1.7-1.81-.41-.78-.61-1.68-.61-2.7s.2-1.92.61-2.7.97-1.37,1.7-1.79c.72-.42,1.54-.63,2.46-.63s1.75.22,2.45.66ZM37.41,88.07c-.33-.61-.78-1.08-1.34-1.41s-1.19-.49-1.87-.49-1.34.16-1.9.47c-.56.32-1,.78-1.33,1.38-.32.6-.48,1.32-.48,2.15s.16,1.53.48,2.15c.32.62.76,1.08,1.33,1.41.56.32,1.19.48,1.9.48s1.31-.16,1.87-.49,1.01-.8,1.34-1.41c.33-.61.49-1.32.49-2.12s-.16-1.51-.49-2.12Z"/>
          </g>
          <g class="st3">
            <path class="st0" d="M49.09,85.53c.58-.34,1.29-.51,2.13-.51v1.33h-.35c-.93,0-1.67.25-2.23.75-.56.5-.84,1.33-.84,2.5v5.57h-1.28v-9.98h1.28v1.77c.28-.62.71-1.1,1.29-1.44Z"/>
          </g>
          <g class="st3">
            <path class="st0" d="M57.54,87.47c.41-.77.97-1.37,1.7-1.79.72-.42,1.54-.63,2.46-.63s1.77.22,2.46.66c.69.44,1.18,1,1.49,1.68v-2.19h1.28v9.98h-1.28v-2.21c-.32.68-.82,1.25-1.51,1.69-.69.44-1.51.67-2.46.67s-1.71-.21-2.44-.64c-.73-.43-1.29-1.03-1.7-1.81-.41-.78-.61-1.68-.61-2.7s.2-1.92.61-2.7ZM65.15,88.07c-.33-.61-.78-1.08-1.34-1.41s-1.19-.49-1.87-.49-1.34.16-1.9.47c-.56.32-1,.78-1.33,1.38-.32.6-.48,1.32-.48,2.15s.16,1.53.48,2.15c.32.62.76,1.08,1.33,1.41.56.32,1.19.48,1.9.48s1.31-.16,1.87-.49,1.01-.8,1.34-1.41c.33-.61.49-1.32.49-2.12s-.16-1.51-.49-2.12Z"/>
          </g>
        </g>
        <g id="_" class="st3">
          <g class="st3">
            <path class="st0" d="M94.57,97h-1.28v-16.26h1.28v16.26Z"/>
          </g>
        </g>
        <g id="Transforma" class="st3">
          <g class="st3">
            <path class="st0" d="M128.45,82.4v1.06h-3.55v11.71h-1.28v-11.71h-3.56v-1.06h8.39Z"/>
          </g>
          <g class="st3">
            <path class="st0" d="M137.43,85.53c.58-.34,1.29-.51,2.13-.51v1.33h-.35c-.93,0-1.67.25-2.23.75-.56.5-.84,1.33-.84,2.5v5.57h-1.28v-9.98h1.28v1.77c.28-.62.71-1.1,1.29-1.44Z"/>
          </g>
          <g class="st3">
            <path class="st0" d="M145.88,87.47c.41-.77.97-1.37,1.7-1.79.72-.42,1.54-.63,2.46-.63s1.77.22,2.46.66c.69.44,1.18,1,1.49,1.68v-2.19h1.28v9.98h-1.28v-2.21c-.32.68-.82,1.25-1.51,1.69-.69.44-1.51.67-2.46.67s-1.71-.21-2.44-.64c-.73-.43-1.29-1.03-1.7-1.81-.41-.78-.61-1.68-.61-2.7s.2-1.92.61-2.7ZM153.49,88.07c-.33-.61-.78-1.08-1.34-1.41s-1.19-.49-1.87-.49-1.34.16-1.9.47c-.56.32-1,.78-1.33,1.38-.32.6-.48,1.32-.48,2.15s.16,1.53.48,2.15c.32.62.76,1.08,1.33,1.41.56.32,1.19.48,1.9.48s1.31-.16,1.87-.49,1.01-.8,1.34-1.41c.33-.61.49-1.32.49-2.12s-.16-1.51-.49-2.12Z"/>
          </g>
          <g class="st3">
            <path class="st0" d="M170.17,86.12c.76.74,1.13,1.81,1.13,3.21v5.85h-1.26v-5.7c0-1.08-.27-1.91-.81-2.49s-1.28-.86-2.22-.86-1.73.3-2.3.91-.86,1.5-.86,2.69v5.45h-1.28v-9.98h1.28v1.7c.32-.61.77-1.08,1.37-1.4.6-.32,1.27-.48,2.03-.48,1.19,0,2.17.37,2.92,1.11Z"/>
          </g>
          <g class="st3">
            <path class="st0" d="M179.13,94.53c-.73-.53-1.13-1.25-1.22-2.17h1.32c.06.56.33,1.01.79,1.36.47.35,1.1.52,1.89.52.69,0,1.24-.17,1.64-.49.4-.33.59-.74.59-1.22,0-.34-.11-.62-.33-.84-.22-.22-.5-.39-.83-.52-.34-.13-.79-.27-1.36-.41-.74-.2-1.35-.39-1.81-.58-.46-.2-.86-.48-1.18-.87-.32-.38-.48-.9-.48-1.54,0-.49.15-.94.44-1.35s.71-.74,1.24-.99c.54-.24,1.15-.37,1.83-.37,1.07,0,1.94.27,2.59.81s1.01,1.29,1.06,2.24h-1.28c-.04-.58-.27-1.06-.69-1.42-.42-.36-1-.54-1.73-.54-.65,0-1.17.15-1.57.46-.4.3-.6.68-.6,1.13,0,.39.12.71.36.96.24.25.53.45.89.58.35.14.83.3,1.43.47.72.2,1.29.38,1.72.57.43.18.79.45,1.1.8.3.35.46.82.48,1.41,0,.54-.15,1.01-.44,1.43-.29.42-.7.75-1.22,1-.52.24-1.13.37-1.81.37-1.15,0-2.08-.27-2.81-.79Z"/>
            <path class="st0" d="M196.12,86.28h-2.32v8.9h-1.28v-8.9h-1.39v-1.08h1.39v-.69c0-1.08.28-1.88.83-2.39.55-.51,1.45-.77,2.7-.77v1.1c-.83,0-1.41.16-1.75.48-.34.32-.5.85-.5,1.59v.69h2.32v1.08Z"/>
          </g>
          <g class="st3">
            <path class="st0" d="M204.37,94.69c-.75-.42-1.34-1.02-1.77-1.79-.43-.77-.65-1.68-.65-2.71s.22-1.94.66-2.71,1.04-1.37,1.79-1.79c.76-.42,1.6-.63,2.54-.63s1.79.21,2.55.63c.76.42,1.36,1.02,1.79,1.79.43.77.65,1.68.65,2.71s-.22,1.93-.66,2.71-1.04,1.38-1.81,1.8c-.77.42-1.62.63-2.56.63s-1.78-.21-2.53-.63ZM208.73,93.76c.56-.3,1.01-.75,1.36-1.35.35-.6.52-1.34.52-2.22s-.17-1.62-.51-2.22c-.34-.6-.79-1.05-1.35-1.35-.56-.3-1.17-.45-1.83-.45s-1.27.15-1.83.45c-.56.3-1.01.75-1.34,1.35-.34.6-.5,1.34-.5,2.22s.17,1.62.5,2.22c.33.6.78,1.05,1.33,1.35.55.3,1.16.45,1.82.45s1.27-.15,1.83-.45Z"/>
          </g>
          <g class="st3">
            <path class="st0" d="M221.2,85.53c.58-.34,1.29-.51,2.13-.51v1.33h-.35c-.93,0-1.67.25-2.23.75-.56.5-.84,1.33-.84,2.5v5.57h-1.28v-9.98h1.28v1.77c.28-.62.71-1.1,1.29-1.44Z"/>
            <path class="st0" d="M244.35,86.12c.74.74,1.11,1.81,1.11,3.21v5.85h-1.26v-5.7c0-1.08-.26-1.91-.79-2.49-.52-.57-1.24-.86-2.14-.86s-1.69.31-2.25.93c-.56.62-.84,1.52-.84,2.7v5.41h-1.26v-5.7c0-1.08-.26-1.91-.79-2.49-.52-.57-1.24-.86-2.16-.86s-1.69.31-2.25.93c-.56.62-.84,1.52-.84,2.7v5.41h-1.28v-9.98h1.28v1.72c.32-.62.77-1.09,1.35-1.42.58-.32,1.24-.48,1.96-.48.86,0,1.62.21,2.27.62s1.12,1.02,1.42,1.83c.27-.79.73-1.4,1.38-1.82.65-.42,1.39-.63,2.22-.63,1.17,0,2.12.37,2.86,1.11Z"/>
          </g>
          <g class="st3">
            <path class="st0" d="M252.72,87.47c.41-.77.97-1.37,1.7-1.79.72-.42,1.54-.63,2.46-.63s1.77.22,2.46.66c.69.44,1.18,1,1.49,1.68v-2.19h1.28v9.98h-1.28v-2.21c-.32.68-.82,1.25-1.51,1.69-.69.44-1.51.67-2.46.67s-1.71-.21-2.44-.64c-.73-.43-1.29-1.03-1.7-1.81-.41-.78-.61-1.68-.61-2.7s.2-1.92.61-2.7ZM260.33,88.07c-.33-.61-.78-1.08-1.34-1.41s-1.19-.49-1.87-.49-1.34.16-1.9.47c-.56.32-1,.78-1.33,1.38-.32.6-.48,1.32-.48,2.15s.16,1.53.48,2.15c.32.62.76,1.08,1.33,1.41.56.32,1.19.48,1.9.48s1.31-.16,1.87-.49,1.01-.8,1.34-1.41c.33-.61.49-1.32.49-2.12s-.16-1.51-.49-2.12Z"/>
          </g>
        </g>
        <g id="_Evoluciona" class="st3">
          <g class="st3">
            <path class="st0" d="M289.8,97h-1.28v-16.26h1.28v16.26Z"/>
            <path class="st0" d="M317.39,83.45v4.77h4.84v1.06h-4.84v4.84h5.39v1.06h-6.67v-12.79h6.67v1.06h-5.39Z"/>
          </g>
          <g class="st3">
            <path class="st0" d="M333.32,93.93l3.36-8.74h1.35l-4,9.98h-1.44l-4-9.98h1.37l3.36,8.74Z"/>
          </g>
          <g class="st3">
            <path class="st0" d="M345.98,94.69c-.75-.42-1.34-1.02-1.77-1.79-.43-.77-.65-1.68-.65-2.71s.22-1.94.66-2.71c.44-.77,1.04-1.37,1.79-1.79.76-.42,1.6-.63,2.54-.63s1.79.21,2.55.63c.76.42,1.36,1.02,1.79,1.79.43.77.65,1.68.65,2.71s-.22,1.93-.66,2.71-1.04,1.38-1.81,1.8c-.77.42-1.62.63-2.56.63s-1.78-.21-2.53-.63ZM350.34,93.76c.56-.3,1.01-.75,1.36-1.35.35-.6.52-1.34.52-2.22s-.17-1.62-.51-2.22c-.34-.6-.79-1.05-1.35-1.35-.56-.3-1.17-.45-1.83-.45s-1.27.15-1.83.45c-.56.3-1.01.75-1.34,1.35-.34.6-.5,1.34-.5,2.22s.17,1.62.5,2.22c.33.6.78,1.05,1.33,1.35s1.16.45,1.82.45,1.27-.15,1.83-.45Z"/>
            <path class="st0" d="M361.52,81.65v13.52h-1.28v-13.52h1.28Z"/>
          </g>
          <g class="st3">
            <path class="st0" d="M377.47,85.2v9.98h-1.28v-1.75c-.29.62-.74,1.1-1.35,1.42s-1.29.49-2.05.49c-1.19,0-2.17-.37-2.92-1.11-.75-.74-1.13-1.81-1.13-3.21v-5.83h1.26v5.68c0,1.08.27,1.91.81,2.48.54.57,1.28.86,2.22.86s1.73-.3,2.3-.91c.57-.61.86-1.5.86-2.69v-5.43h1.28Z"/>
          </g>
          <g class="st3">
            <path class="st0" d="M384.8,87.47c.41-.77.99-1.37,1.72-1.79.73-.42,1.57-.63,2.5-.63,1.23,0,2.25.3,3.04.91s1.31,1.44,1.54,2.49h-1.37c-.17-.72-.54-1.28-1.11-1.69-.57-.41-1.27-.61-2.11-.61-.67,0-1.27.15-1.81.46s-.96.76-1.27,1.36c-.31.6-.47,1.34-.47,2.22s.16,1.62.47,2.23c.31.61.73,1.07,1.27,1.37s1.14.46,1.81.46c.84,0,1.54-.2,2.11-.61.57-.41.93-.98,1.11-1.71h1.37c-.23,1.02-.75,1.85-1.55,2.47-.8.62-1.82.93-3.03.93-.94,0-1.77-.21-2.5-.63-.73-.42-1.3-1.02-1.72-1.79-.42-.77-.62-1.68-.62-2.71s.21-1.94.62-2.71Z"/>
            <path class="st0" d="M400.32,83.04c-.18-.18-.27-.41-.27-.68s.09-.49.27-.67c.18-.18.4-.26.66-.26s.48.09.66.26c.18.18.27.4.27.67s-.09.49-.27.68-.4.27-.66.27-.47-.09-.66-.27ZM401.61,85.2v9.98h-1.28v-9.98h1.28Z"/>
          </g>
          <g class="st3">
            <path class="st0" d="M410.76,94.69c-.75-.42-1.34-1.02-1.77-1.79-.43-.77-.65-1.68-.65-2.71s.22-1.94.66-2.71,1.04-1.37,1.79-1.79c.76-.42,1.6-.63,2.54-.63s1.79.21,2.55.63c.76.42,1.36,1.02,1.79,1.79.43.77.65,1.68.65,2.71s-.22,1.93-.66,2.71-1.04,1.38-1.81,1.8c-.77.42-1.62.63-2.56.63s-1.78-.21-2.53-.63ZM415.12,93.76c.56-.3,1.01-.75,1.36-1.35.35-.6.52-1.34.52-2.22s-.17-1.62-.51-2.22c-.34-.6-.79-1.05-1.35-1.35-.56-.3-1.17-.45-1.83-.45s-1.27.15-1.83.45c-.56.3-1.01.75-1.34,1.35-.33.6-.5,1.34-.5,2.22s.17,1.62.5,2.22c.33.6.78,1.05,1.33,1.35s1.16.45,1.82.45,1.27-.15,1.83-.45Z"/>
          </g>
          <g class="st3">
            <path class="st0" d="M432.62,86.12c.76.74,1.13,1.81,1.13,3.21v5.85h-1.26v-5.7c0-1.08-.27-1.91-.81-2.49s-1.28-.86-2.22-.86-1.73.3-2.3.91-.86,1.5-.86,2.69v5.45h-1.28v-9.98h1.28v1.7c.32-.61.77-1.08,1.37-1.4.6-.32,1.27-.48,2.03-.48,1.19,0,2.17.37,2.92,1.11Z"/>
          </g>
          <g class="st3">
            <path class="st0" d="M441,87.47c.41-.77.97-1.37,1.7-1.79.72-.42,1.54-.63,2.46-.63s1.77.22,2.46.66c.69.44,1.18,1,1.49,1.68v-2.19h1.28v9.98h-1.28v-2.21c-.32.68-.82,1.25-1.51,1.69-.69.44-1.51.67-2.46.67-.9,0-1.71-.21-2.44-.64s-1.29-1.03-1.7-1.81c-.41-.78-.61-1.68-.61-2.7s.2-1.92.61-2.7ZM448.61,88.07c-.33-.61-.78-1.08-1.34-1.41s-1.19-.49-1.87-.49-1.34.16-1.9.47c-.56.32-1,.78-1.33,1.38-.32.6-.48,1.32-.48,2.15s.16,1.53.48,2.15c.32.62.76,1.08,1.33,1.41.56.32,1.19.48,1.9.48s1.31-.16,1.87-.49,1.01-.8,1.34-1.41c.33-.61.49-1.32.49-2.12s-.17-1.51-.49-2.12Z"/>
          </g>
        </g>
        <path id="Trazado_48" class="st0" d="M36.52,43.88H14.96l-3.56,10.31H0L19.46,0h12.64l19.46,54.19h-11.48l-3.57-10.31ZM33.57,35.2l-7.83-22.64-7.83,22.64h15.66Z"/>
        <path id="Trazado_49" class="st0" d="M99.08.08l-18.3,35.28v18.84h-10.85v-18.84L51.56.08h12.25l11.63,24.73L86.99.08h12.1Z"/>
        <rect id="Rectángulo_23" class="st0" x="112.28" y=".08" width="10.85" height="54.12"/>
      </g>
    </g>
  </g>
</svg>